<svg
    xmlns="http://www.w3.org/2000/svg"
    version="1.0"
    viewBox="0 0 393.775 395.538"
>
        <path
        fill="#f97316"
        d="M4605 7030c-694-178-1269-791.007-1413.999-1506.006-90-446-31.008-902.995 166.992-1298.994 516.285-1051.344 1843.4-1337.251 2801.516-787.362 468.868 274.83 833.355 839.455 905.355 1422.454 8.223 89.867 40.362 413.771.136 614.903-483.338.94-966.67 3.008-1450.005 5.01-309.421-339.241-804.99-832.297-804.99-846.006 0-10.196 1359.99 7.545 1359.99 2.007 0-4.31-235.794-538.133-832.998-651.006-363.364-67.685-987.398 56.585-1263.003 638.994-114 240-138.998 536-67.998 783.999 150 519 588.01 862.002 1104.009 862.002 538.601 0 815.483-305.799 837.993-309.99 27.783-5.174 562.002 537.992 562.002 556.992 0 7-35.995 44.002-79.995 82.002-251.412 221.583-899.524 670.17-1825.005 431zm1482.993-528.003c-2-4-42.996-44.992-90.996-91.992L5909.004 6325l-41.997 23.994c-277 155-450.002 204.009-727.002 204.009-1051.365 0-1678.525-1021.171-1387.998-1886.997 409.333-1225.577 2109.467-1317.004 2651.997-180 71 146 149 404.993 131 432.993-3.383 8.46-409.027 5.162-1060.004-.996L5755.005 5200h1057.998c1.879-278.174-54.965-546.186-169-799.995-559.467-1179.97-2125.422-1279.214-2884.82-308.873-508.812 651.333-451.876 1593.405 180.822 2229.869 351.555 351.556 754.72 466.454 1074.99 491.997 573.46 49.09 1078.668-299.66 1072.998-311.001z"
        style="fill:#fb923c;fill-opacity:.80000001"
        transform="matrix(.1 0 0 -.1 -314.995 709.586)"
    />
</svg>
